<?xml version="1.0" encoding="UTF-8"?>
<svg version="1.1" xmlns="http://www.w3.org/2000/svg" width="4000" height="4000">
<path d="M0 0 C1.95923934 0.90651282 3.92014244 1.8093291 5.88153076 2.71118164 C24.66329775 11.35540057 43.2201089 20.43508823 61.72186279 29.66235352 C62.76655731 30.18206726 63.81125183 30.70178101 64.88760376 31.23724365 C78.63935464 38.08624354 92.20005306 45.21671728 105.65130615 52.63769531 C108.74234712 54.33557273 111.85035563 55.9985615 114.96405029 57.65454102 C127.39277374 64.26913589 139.6365818 71.12588 151.76483154 78.27563477 C156.14216961 80.85248549 160.54137615 83.38783564 164.96014404 85.89282227 C165.55164246 86.22816483 166.14314087 86.56350739 166.75256348 86.90901184 C167.3461969 87.24551254 167.93983032 87.58201324 168.55145264 87.92871094 C180.63567268 94.77875257 192.56021056 101.83428196 204.31317139 109.2409668 C207.16851564 111.03597936 210.03223428 112.81704976 212.89764404 114.59594727 C241.37905476 132.29273689 269.49489263 150.68661463 296.97186279 169.91235352 C297.63331299 170.37480469 298.29476318 170.83725586 298.97625732 171.3137207 C326.42799665 190.53698206 353.50954269 210.34570037 379.97186279 230.91235352 C380.52019775 231.33838867 381.06853271 231.76442383 381.63348389 232.20336914 C389.16760828 238.06734604 396.61139136 244.03440998 404.00579834 250.07348633 C408.32743101 253.59678912 412.69417662 257.05364209 417.09686279 260.47485352 C422.51139418 264.69119407 427.74750753 269.08369517 432.93548584 273.57495117 C436.38251819 276.55802507 439.86506469 279.48190815 443.40936279 282.34985352 C449.09807238 286.9708874 454.61922475 291.77355725 460.14373779 296.58813477 C462.59929588 298.72650625 465.06630833 300.84968352 467.54998779 302.95532227 C474.23001949 308.62063022 480.74661541 314.41591963 487.1395874 320.40405273 C490.67887953 323.71916127 494.26714951 326.95626369 497.93670654 330.12719727 C502.13942117 333.81364752 506.2323065 337.62339655 510.34246826 341.41235352 C512.00912539 342.94665699 513.67963802 344.47667518 515.35076904 346.00610352 C520.69441683 350.90560395 525.95946978 355.83852807 531.04011536 361.01304626 C532.76399069 362.70797224 534.52794239 364.26842715 536.37591553 365.82470703 C542.60701745 371.24536808 548.36319471 377.15989134 554.19451904 383.00219727 C555.46654447 384.27354759 556.73871818 385.54474956 558.0110321 386.81581116 C560.66602507 389.46933686 563.31921923 392.12464445 565.97113037 394.78125 C569.35220257 398.16801886 572.73774538 401.55027744 576.12465763 404.9312048 C578.74916847 407.5520837 581.37127024 410.17536243 583.99267387 412.79934883 C585.23934201 414.04667896 586.48673927 415.29328082 587.73491096 416.53910637 C599.49825271 428.28518005 599.49825271 428.28518005 604.64445496 434.36476135 C606.62768048 436.67695524 608.79054075 438.78843468 610.97186279 440.91235352 C614.43118105 444.33542143 617.70104025 447.82193954 620.86248779 451.51782227 C623.8273139 454.88344894 626.90250546 458.14217845 629.97186279 461.41235352 C634.15074578 465.86899525 638.29337137 470.33724918 642.27655029 474.97094727 C644.4234133 477.42945168 646.63723411 479.82264252 648.84686279 482.22485352 C652.97092956 486.74139189 656.85123144 491.40368367 660.69061279 496.16235352 C663.03905248 498.9933493 665.48096182 501.70618949 667.97186279 504.41235352 C672.01141097 508.806139 675.81865898 513.33074175 679.56561279 517.97485352 C682.26965441 521.27589133 685.05309136 524.49990052 687.84686279 527.72485352 C692.28034098 532.85805995 696.53394969 538.09832165 700.69061279 543.45727539 C704.31995397 548.12283472 708.06834208 552.67964639 711.84686279 557.22485352 C717.64599609 564.21825125 723.21005836 571.36214982 728.69451904 578.60375977 C731.47881289 582.27795709 734.30835922 585.91448692 737.15155029 589.54321289 C744.35303657 598.73711037 751.32223287 608.08419571 758.21307373 617.51245117 C759.98195013 619.92611788 761.76036445 622.33244136 763.54217529 624.73657227 C770.64153846 634.31915566 777.61860344 643.97475164 784.45330811 653.74780273 C785.98021382 655.92425708 787.51783706 658.09277911 789.05780029 660.26000977 C804.96387151 682.71578094 820.13124304 705.74069183 834.97186279 728.91235352 C835.45735596 729.67016113 835.94284912 730.42796875 836.4430542 731.20874023 C844.19072749 743.33055178 851.71001433 755.58815644 859.15106201 767.90014648 C860.36470155 769.9079079 861.57987096 771.91474535 862.79656982 773.9206543 C882.38931204 806.23121802 901.00564308 839.15112843 918.32171631 872.73925781 C919.59417687 875.18609461 920.87624546 877.62675687 922.16693115 880.06396484 C928.52963105 892.08216691 934.7086716 904.1841676 940.78436279 916.34985352 C941.26497162 917.31167542 941.74558044 918.27349731 942.24075317 919.26446533 C949.7991153 934.40685307 957.16865289 949.60881044 964.12530518 965.03887939 C965.03626764 967.05488465 965.95235092 969.06850881 966.86932373 971.08178711 C988.63356211 1018.89446112 1008.58646052 1067.50740424 1026.2789917 1116.97698975 C1026.99741175 1118.9837182 1027.71883931 1120.98934851 1028.44061279 1122.99487305 C1064.28815399 1222.74129423 1091.49109795 1325.16323868 962.88421631 2610.94049072 C961.97770349 2612.89973007 961.07488721 2614.86063316 960.17303467 2616.82202148 C951.52881574 2635.60378847 942.44912808 2654.16059962 933.22186279 2672.66235352 C932.70214905 2673.70704803 932.1824353 2674.75174255 931.64697266 2675.82809448 C924.79797277 2689.57984536 917.66749903 2703.14054379 910.246521 2716.59179688 C908.54864357 2719.68283784 906.88565481 2722.79084636 905.22967529 2725.90454102 C898.52623831 2738.49966255 891.5738446 2750.90708351 884.32733154 2763.19750977 C881.70256832 2767.65040674 879.13289397 2772.13091654 876.590271 2776.63110352 C851.08890647 2821.7425431 822.67428087 2865.46236186 792.97186279 2907.91235352 C792.50941162 2908.57380371 792.04696045 2909.23525391 791.57049561 2909.91674805 C772.34723425 2937.36848737 752.53851594 2964.45003341 731.97186279 2990.91235352 C731.54582764 2991.46068848 731.11979248 2992.00902344 730.68084717 2992.57397461 C724.81687027 3000.108099 718.84980633 3007.55188209 712.81072998 3014.94628906 C709.28742719 3019.26792173 705.83057422 3023.63466734 702.40936279 3028.03735352 C698.19302224 3033.4518849 693.80052114 3038.68799825 689.30926514 3043.87597656 C686.32619124 3047.32300892 683.40230816 3050.80555541 680.53436279 3054.34985352 C675.91332891 3060.0385631 671.11065906 3065.55971547 666.29608154 3071.08422852 C664.15771005 3073.5397866 662.03453279 3076.00679905 659.92889404 3078.49047852 C654.26358609 3085.17051022 648.46829668 3091.68710613 642.48016357 3098.08007812 C639.16505504 3101.61937025 635.92795262 3105.20764023 632.75701904 3108.87719727 C629.07056879 3113.07991189 625.26081976 3117.17279722 621.47186279 3121.28295898 C619.93755932 3122.94961611 618.40754112 3124.62012875 616.87811279 3126.29125977 C611.97861236 3131.63490755 607.04568824 3136.8999605 601.87117004 3141.98060608 C600.17624407 3143.70448141 598.61578916 3145.46843311 597.05950928 3147.31640625 C591.63884823 3153.54750817 585.72432497 3159.30368543 579.88201904 3165.13500977 C578.61066872 3166.40703519 577.33946675 3167.6792089 576.06840515 3168.95152283 C573.41487944 3171.60651579 570.75957185 3174.25970995 568.10296631 3176.91162109 C564.71619745 3180.29269329 561.33393887 3183.6782361 557.95301151 3187.06514835 C555.33213261 3189.68965919 552.70885388 3192.31176096 550.08486748 3194.9331646 C548.83753735 3196.17983273 547.59093549 3197.42722999 546.34510994 3198.67540169 C534.6036914 3210.43408145 534.6036914 3210.43408145 528.49809265 3215.60630798 C526.36967522 3217.4276654 524.42150142 3219.40272601 522.47186279 3221.41235352 C519.16547201 3224.8204794 515.67808541 3227.93423188 512.09490967 3231.04321289 C508.64222449 3234.08297344 505.3111532 3237.2491585 501.97186279 3240.41235352 C497.32831843 3244.81102347 492.63295384 3249.12074518 487.8024292 3253.3137207 C485.38101897 3255.42833716 483.02065829 3257.60600122 480.65936279 3259.78735352 C476.14282442 3263.91142028 471.48053264 3267.79172216 466.72186279 3271.63110352 C463.89086701 3273.9795432 461.17802682 3276.42145254 458.47186279 3278.91235352 C454.07807731 3282.95190169 449.55347456 3286.75914971 444.90936279 3290.50610352 C441.60832498 3293.21014513 438.38431578 3295.99358208 435.15936279 3298.78735352 C430.02615636 3303.2208317 424.78589466 3307.47444041 419.42694092 3311.63110352 C414.76138159 3315.26044469 410.20456992 3319.0088328 405.65936279 3322.78735352 C398.66596506 3328.58648681 391.52206649 3334.15054908 384.28045654 3339.63500977 C380.60625922 3342.41930362 376.96972939 3345.24884994 373.34100342 3348.09204102 C364.14710594 3355.29352729 354.8000206 3362.26272359 345.37176514 3369.15356445 C342.95809843 3370.92244085 340.55177495 3372.70085517 338.14764404 3374.48266602 C328.56506065 3381.58202918 318.90946467 3388.55909416 309.13641357 3395.39379883 C306.95995922 3396.92070454 304.7914372 3398.45832779 302.62420654 3399.99829102 C280.16843536 3415.90436223 257.14352448 3431.07173376 233.97186279 3445.91235352 C232.83515137 3446.64059326 232.83515137 3446.64059326 231.67547607 3447.38354492 C219.55366453 3455.13121821 207.29605987 3462.65050506 194.98406982 3470.09155273 C192.97630841 3471.30519227 190.96947096 3472.52036168 188.96356201 3473.73706055 C156.65299829 3493.32980277 123.73308787 3511.94613381 90.1449585 3529.26220703 C87.6981217 3530.53466759 85.25745943 3531.81673619 82.82025146 3533.10742188 C70.8020494 3539.47012178 58.70004871 3545.64916232 46.53436279 3551.72485352 C45.09162994 3552.44576675 45.09162994 3552.44576675 43.61975098 3553.1812439 C28.47736324 3560.73960603 13.27540586 3568.10914361 -2.15466309 3575.0657959 C-4.17066834 3575.97675836 -6.1842925 3576.89284164 -8.1975708 3577.80981445 C-56.01024481 3599.57405284 -104.62318793 3619.52695124 -154.09277344 3637.21948242 C-156.09950189 3637.93790247 -158.1051322 3638.65933003 -160.11065674 3639.38110352 C-259.85707792 3675.22864472 -362.27902237 3702.43158867 -1648.05627441 3573.82470703 C-1650.01551376 3572.91819421 -1651.97641685 3572.01537793 -1653.93780518 3571.11352539 C-1672.71957216 3562.46930646 -1691.27638331 3553.3896188 -1709.77813721 3544.16235352 C-1710.82283173 3543.64263977 -1711.86752625 3543.12292603 -1712.94387817 3542.58746338 C-1726.69562905 3535.73846349 -1740.25632748 3528.60798975 -1753.70758057 3521.18701172 C-1756.79862153 3519.4891343 -1759.90663005 3517.82614553 -1763.02032471 3516.17016602 C-1775.61544625 3509.46672904 -1788.0228672 3502.51433532 -1800.31329346 3495.26782227 C-1804.76619043 3492.64305904 -1809.24670023 3490.0733847 -1813.74688721 3487.53076172 C-1858.85832679 3462.02939719 -1902.57814555 3433.61477159 -1945.02813721 3403.91235352 C-1945.6895874 3403.44990234 -1946.3510376 3402.98745117 -1947.03253174 3402.51098633 C-1974.48427106 3383.28772497 -2001.5658171 3363.47900667 -2028.02813721 3342.91235352 C-2028.57647217 3342.48631836 -2029.12480713 3342.0602832 -2029.6897583 3341.62133789 C-2037.22388269 3335.75736099 -2044.66766578 3329.79029705 -2052.06207275 3323.7512207 C-2056.38370542 3320.22791791 -2060.75045103 3316.77106494 -2065.15313721 3313.34985352 C-2070.56766859 3309.13351296 -2075.80378194 3304.74101186 -2080.99176025 3300.24975586 C-2084.43879261 3297.26668197 -2087.9213391 3294.34279888 -2091.46563721 3291.47485352 C-2097.15434679 3286.85381963 -2102.67549916 3282.05114978 -2108.20001221 3277.23657227 C-2110.65557029 3275.09820078 -2113.12258274 3272.97502352 -2115.60626221 3270.86938477 C-2122.28629391 3265.20407681 -2128.80288982 3259.4087874 -2135.19586182 3253.4206543 C-2138.73515394 3250.10554576 -2142.32342392 3246.86844334 -2145.99298096 3243.69750977 C-2150.19569558 3240.01105951 -2154.28858091 3236.20131048 -2158.39874268 3232.41235352 C-2160.0653998 3230.87805004 -2161.73591244 3229.34803185 -2163.40704346 3227.81860352 C-2168.75069124 3222.91910308 -2174.01574419 3217.98617896 -2179.09638977 3212.81166077 C-2180.8202651 3211.11673479 -2182.5842168 3209.55627988 -2184.43218994 3208 C-2190.66329186 3202.57933895 -2196.41946912 3196.66481569 -2202.25079346 3190.82250977 C-2203.52281888 3189.55115944 -2204.79499259 3188.27995747 -2206.06730652 3187.00889587 C-2208.72229948 3184.35537017 -2211.37549364 3181.70006258 -2214.02740479 3179.04345703 C-2217.40847698 3175.65668817 -2220.79401979 3172.27442959 -2224.18093204 3168.89350224 C-2226.80544289 3166.27262333 -2229.42754465 3163.6493446 -2232.04894829 3161.0253582 C-2233.29561642 3159.77802807 -2234.54301368 3158.53142621 -2235.79118538 3157.28560066 C-2247.55452713 3145.53952698 -2247.55452713 3145.53952698 -2252.70072937 3139.45994568 C-2254.6839549 3137.14775179 -2256.84681516 3135.03627235 -2259.02813721 3132.91235352 C-2262.48745546 3129.4892856 -2265.75731466 3126.00276749 -2268.91876221 3122.30688477 C-2271.88358831 3118.9412581 -2274.95877988 3115.68252858 -2278.02813721 3112.41235352 C-2282.2070202 3107.95571179 -2286.34964579 3103.48745786 -2290.33282471 3098.85375977 C-2292.47968771 3096.39525536 -2294.69350852 3094.00206452 -2296.90313721 3091.59985352 C-2301.02720397 3087.08331514 -2304.90750586 3082.42102336 -2308.74688721 3077.66235352 C-2311.09532689 3074.83135773 -2313.53723623 3072.11851754 -2316.02813721 3069.41235352 C-2320.06768539 3065.01856804 -2323.8749334 3060.49396528 -2327.62188721 3055.84985352 C-2330.32592882 3052.5488157 -2333.10936578 3049.32480651 -2335.90313721 3046.09985352 C-2340.33661539 3040.96664708 -2344.5902241 3035.72638538 -2348.74688721 3030.36743164 C-2352.37622839 3025.70187231 -2356.12461649 3021.14506064 -2359.90313721 3016.59985352 C-2365.7022705 3009.60645578 -2371.26633277 3002.46255721 -2376.75079346 2995.22094727 C-2379.53508731 2991.54674994 -2382.36463363 2987.91022011 -2385.20782471 2984.28149414 C-2392.40931098 2975.08759666 -2399.37850728 2965.74051132 -2406.26934814 2956.31225586 C-2408.03822454 2953.89858915 -2409.81663886 2951.49226567 -2411.59844971 2949.08813477 C-2418.69781287 2939.50555137 -2425.67487785 2929.84995539 -2432.50958252 2920.0769043 C-2434.03648823 2917.90044995 -2435.57411148 2915.73192792 -2437.11407471 2913.56469727 C-2453.02014592 2891.10892609 -2468.18751745 2868.0840152 -2483.02813721 2844.91235352 C-2483.75637695 2843.77564209 -2483.75637695 2843.77564209 -2484.49932861 2842.6159668 C-2492.2470019 2830.49415525 -2499.76628875 2818.23655059 -2507.20733643 2805.92456055 C-2508.42097597 2803.91679913 -2509.63614537 2801.90996168 -2510.85284424 2799.90405273 C-2530.44558646 2767.59348901 -2549.0619175 2734.6735786 -2566.37799072 2701.08544922 C-2567.65045128 2698.63861242 -2568.93251988 2696.19795016 -2570.22320557 2693.76074219 C-2576.58590547 2681.74254012 -2582.76494601 2669.64053943 -2588.84063721 2657.47485352 C-2589.32124603 2656.51303162 -2589.80185486 2655.55120972 -2590.29702759 2654.5602417 C-2597.85538972 2639.41785396 -2605.2249273 2624.21589659 -2612.18157959 2608.78582764 C-2613.09254206 2606.76982238 -2614.00862533 2604.75619823 -2614.92559814 2602.74291992 C-2636.68983653 2554.93024591 -2656.64273493 2506.31730279 -2674.33526611 2456.84771729 C-2675.05368616 2454.84098883 -2675.77511372 2452.83535853 -2676.49688721 2450.82983398 C-2712.34442841 2351.0834128 -2739.54737237 2248.66146835 -2610.94049072 962.88421631 C-2610.0339779 960.92497696 -2609.13116162 958.96407387 -2608.22930908 957.00268555 C-2599.58509015 938.22091856 -2590.50540249 919.66410741 -2581.27813721 901.16235352 C-2580.75842346 900.117659 -2580.23870972 899.07296448 -2579.70324707 897.99661255 C-2572.85424718 884.24486167 -2565.72377344 870.68416324 -2558.30279541 857.23291016 C-2556.60491799 854.14186919 -2554.94192922 851.03386067 -2553.28594971 847.92016602 C-2546.52720677 835.22179508 -2539.50775789 822.71899603 -2532.20391846 810.32641602 C-2529.54074325 805.80522987 -2526.95051532 801.24950547 -2524.40313721 796.66235352 C-2519.16850907 787.27861921 -2513.6136126 778.09041683 -2508.02813721 768.91235352 C-2507.42050537 767.91381348 -2506.81287354 766.91527344 -2506.18682861 765.88647461 C-2467.61705681 702.62341895 -2425.50053479 641.41993528 -2380.02813721 582.91235352 C-2379.38908447 582.08985107 -2379.38908447 582.08985107 -2378.73712158 581.25073242 C-2372.87314469 573.71660803 -2366.90608074 566.27282494 -2360.86700439 558.87841797 C-2357.3437016 554.5567853 -2353.88684863 550.19003969 -2350.46563721 545.78735352 C-2346.24929666 540.37282213 -2341.85679555 535.13670878 -2337.36553955 529.94873047 C-2334.38246566 526.50169811 -2331.45858257 523.01915162 -2328.59063721 519.47485352 C-2323.96960332 513.78614393 -2319.16693347 508.26499156 -2314.35235596 502.74047852 C-2312.21398447 500.28492043 -2310.09080721 497.81790798 -2307.98516846 495.33422852 C-2302.3198605 488.65419681 -2296.52457109 482.1376009 -2290.53643799 475.74462891 C-2287.22132945 472.20533678 -2283.98422703 468.6170668 -2280.81329346 464.94750977 C-2277.1268432 460.74479514 -2273.31709417 456.65190981 -2269.52813721 452.54174805 C-2267.99383374 450.87509092 -2266.46381554 449.20457829 -2264.93438721 447.53344727 C-2260.03488677 442.18979948 -2255.10196265 436.92474653 -2249.92744446 431.84410095 C-2248.23251848 430.12022562 -2246.67206357 428.35627392 -2245.11578369 426.50830078 C-2239.69512264 420.27719886 -2233.78059938 414.5210216 -2227.93829346 408.68969727 C-2226.66694314 407.41767184 -2225.39574117 406.14549813 -2224.12467957 404.8731842 C-2221.47115386 402.21819124 -2218.81584627 399.56499708 -2216.15924072 396.91308594 C-2212.77247186 393.53201374 -2209.39021328 390.14647093 -2206.00928593 386.75955868 C-2203.38840703 384.13504784 -2200.76512829 381.51294607 -2198.14114189 378.89154243 C-2196.89381176 377.6448743 -2195.6472099 376.39747704 -2194.40138435 375.14930534 C-2182.65531067 363.3859636 -2182.65531067 363.3859636 -2176.57572937 358.23976135 C-2174.26353548 356.25653582 -2172.15205604 354.09367556 -2170.02813721 351.91235352 C-2166.60506929 348.45303526 -2163.11855118 345.18317606 -2159.42266846 342.02172852 C-2156.05704179 339.05690241 -2152.79831227 335.98171084 -2149.52813721 332.91235352 C-2145.07149548 328.73347053 -2140.60324155 324.59084494 -2135.96954346 320.60766602 C-2133.51103905 318.46080301 -2131.11784821 316.2469822 -2128.71563721 314.03735352 C-2124.19909883 309.91328675 -2119.53680705 306.03298487 -2114.77813721 302.19360352 C-2111.94714142 299.84516383 -2109.23430123 297.40325449 -2106.52813721 294.91235352 C-2102.13435173 290.87280534 -2097.60974897 287.06555733 -2092.96563721 283.31860352 C-2089.66459939 280.6145619 -2086.4405902 277.83112495 -2083.21563721 275.03735352 C-2078.08243077 270.60387533 -2072.84216907 266.35026662 -2067.48321533 262.19360352 C-2062.817656 258.56426234 -2058.26084433 254.81587423 -2053.71563721 251.03735352 C-2046.72223947 245.23822022 -2039.57834091 239.67415795 -2032.33673096 234.18969727 C-2028.66253364 231.40540342 -2025.0260038 228.57585709 -2021.39727783 225.73266602 C-2012.20338035 218.53117974 -2002.85629502 211.56198344 -1993.42803955 204.67114258 C-1991.01437284 202.90226618 -1988.60804937 201.12385186 -1986.20391846 199.34204102 C-1976.62133506 192.24267785 -1966.96573908 185.26561287 -1957.19268799 178.4309082 C-1955.01623364 176.90400249 -1952.84771161 175.36637925 -1950.68048096 173.82641602 C-1928.22470978 157.9203448 -1905.19979889 142.75297327 -1882.02813721 127.91235352 C-1881.27032959 127.42686035 -1880.51252197 126.94136719 -1879.73175049 126.44116211 C-1866.62111749 118.06148216 -1853.34305293 109.96234555 -1840.02813721 101.91235352 C-1839.33800537 101.4938916 -1838.64787354 101.07542969 -1837.93682861 100.64428711 C-1811.33681473 84.51649945 -1784.23414638 69.25128985 -1756.87335205 54.45629883 C-1754.01946651 52.90764839 -1751.17405436 51.34419747 -1748.32891846 49.77954102 C-1715.43999699 31.81179013 -1681.71129189 14.82214719 -1647.51690674 -0.52075195 C-1644.97581956 -1.6620184 -1642.43789485 -2.8090417 -1639.90264893 -3.96313477 C-1592.07410426 -25.7332615 -1543.44914423 -45.69650124 -1493.96350098 -63.39477539 C-1491.95677252 -64.11319544 -1489.95114222 -64.834623 -1487.94561768 -65.55639648 C-1388.19919649 -101.40393769 -1285.77725204 -128.60688164 0 0 Z " fill="#4A7BB2" transform="translate(2824.0281372070313,213.087646484375)"/>
<path d="M0 0 C476.85 0 953.7 0 1445 0 C1445 487.41 1445 974.82 1445 1477 C968.15 1477 491.3 1477 0 1477 C0 989.59 0 502.18 0 0 Z " fill="#FEFEFE" transform="translate(692,1544)"/>
<path d="M0 0 C476.85 0 953.7 0 1445 0 C1445 212.85 1445 425.7 1445 645 C968.15 645 491.3 645 0 645 C0 432.15 0 219.3 0 0 Z " fill="#FEFEFE" transform="translate(692,831)"/>
<path d="M0 0 C0.98594147 -0.00100708 1.97188293 -0.00201416 2.98770142 -0.00305176 C28.80792249 0.01465991 54.07033458 2.32399835 79.53369141 6.70849609 C81.65160676 7.07213878 83.77113397 7.42650537 85.89208984 7.77197266 C135.01465884 15.77795343 182.89649753 32.85498507 227.6875 54.25 C228.6760498 54.72163574 229.66459961 55.19327148 230.68310547 55.67919922 C245.20452028 62.65751296 259.16507673 70.38724277 272.99267578 78.6484375 C275.43112622 80.09763436 277.88060522 81.52395989 280.33984375 82.9375 C290.76079878 88.93801809 300.77067611 95.45177797 310.6875 102.25 C311.48027344 102.79140625 312.27304688 103.3328125 313.08984375 103.890625 C331.35549356 116.39894199 348.92220404 129.78069895 366.00048828 143.86279297 C367.52393159 145.1154999 369.05636635 146.3572526 370.58984375 147.59765625 C381.44462103 156.38030277 391.99095808 165.53378794 402.18164062 175.07910156 C405.2296987 177.93167397 408.35277867 180.64496132 411.5625 183.3125 C416.40747744 187.5963863 419.60218662 192.60613405 422.6875 198.25 C423.04972656 198.88292969 423.41195312 199.51585937 423.78515625 200.16796875 C427.49126321 207.97664993 426.73041197 219.46952162 424.5625 227.625 C420.62533288 238.45674549 413.9022171 247.5271349 403.515625 252.88671875 C391.79071387 257.87695532 377.93228987 259.80489805 365.5625 255.6875 C356.00605542 251.45976415 348.6983988 243.62697567 341.14550781 236.60351562 C334.79973654 230.71253171 328.31556914 225.06052303 321.58203125 219.6171875 C319.07399503 217.56608095 316.60651907 215.47575668 314.15039062 213.36303711 C306.59410903 206.87676403 298.73987211 200.82620396 290.78564453 194.83789062 C288.84480637 193.36905057 286.91838514 191.88360638 284.99609375 190.390625 C238.7853881 154.74024652 186.22806778 126.71969653 131.00146484 108.05786133 C129.41493778 107.5039662 127.83726477 106.92423379 126.26806641 106.32299805 C117.95277843 103.14905091 109.43688608 100.95081229 100.8125 98.8125 C99.63630096 98.51894119 99.63630096 98.51894119 98.43634033 98.2194519 C65.41852372 90.01996753 32.30982971 86.0192825 -1.6875 86.0625 C-2.50411102 86.06277191 -3.32072205 86.06304382 -4.16207886 86.06332397 C-40.42463704 86.11831724 -75.25063235 91.11266479 -110.3125 100.25 C-111.70529162 100.58774699 -113.0985392 100.92361806 -114.4921875 101.2578125 C-171.40695855 115.17728822 -227.90276586 143.13837432 -275.52441406 176.97949219 C-277.27896961 178.2261753 -279.04098563 179.46161446 -280.8046875 180.6953125 C-293.74658631 189.79234007 -306.32260872 199.36576751 -318.3125 209.6875 C-321.23015446 212.17966319 -324.19771052 214.59516933 -327.1875 217 C-330.90369299 220.02243193 -334.33849464 223.15094385 -337.66015625 226.59765625 C-339.34444761 228.28194761 -341.10840563 229.78762091 -342.9375 231.3125 C-346.24343246 234.12605954 -349.0820897 237.1908595 -351.95214844 240.43237305 C-359.82467014 249.28034293 -368.244724 256.26480088 -380.56787109 257.47070312 C-394.19585656 258.12057271 -405.36913783 257.33222262 -416.1796875 248.2265625 C-423.01274457 241.89409569 -427.45704851 236.18740185 -430.3125 227.25 C-430.6425 226.26 -430.9725 225.27 -431.3125 224.25 C-432.5735503 210.52803338 -431.45336681 199.55786987 -422.46484375 188.70703125 C-421.75457031 187.89621094 -421.04429687 187.08539062 -420.3125 186.25 C-419.04599609 184.80173828 -419.04599609 184.80173828 -417.75390625 183.32421875 C-380.72147424 141.82135574 -332.35815419 107.83405168 -284.3125 80.25 C-283.57837891 79.82847656 -282.84425781 79.40695312 -282.08789062 78.97265625 C-276.86763961 75.993633 -271.60293518 73.10225332 -266.3125 70.25 C-265.47477051 69.79689453 -264.63704102 69.34378906 -263.77392578 68.87695312 C-218.10962635 44.29561712 -169.93657291 25.62906915 -119.37158203 13.96142578 C-116.49209753 13.29176753 -113.61875572 12.60059945 -110.74609375 11.90234375 C-85.87480293 5.92971666 -60.75452279 3.27581298 -35.3125 1.25 C-34.20817627 1.15283691 -33.10385254 1.05567383 -31.96606445 0.95556641 C-21.31768448 0.0795384 -10.67790911 0.00761388 0 0 Z " fill="#FEFEFE" transform="translate(2882.3125,791.75)"/>
<path d="M0 0 C17.86134263 -0.2646154 35.59487842 -0.12933294 53.37890625 1.75878906 C56.21347094 2.05800114 59.04992034 2.32011751 61.88818359 2.58154297 C136.10680224 10.0256736 212.22620332 45.39976107 270.62451172 90.81152344 C273.00178404 92.63871264 275.43798655 94.3802245 277.87646484 96.12451172 C288.49643411 103.81921999 298.6371639 112.09791374 308.58642578 120.63525391 C310.3170881 122.11824373 312.05333479 123.59449138 313.79052734 125.06982422 C316.73915823 127.57682232 319.67172815 130.10166257 322.59667969 132.63623047 C324.16578628 133.98819012 325.7484848 135.32252673 327.33349609 136.65576172 C337.0307674 145.03972268 344.3742166 154.73755282 345.59912109 167.75732422 C346.22813064 180.17465989 342.78288086 190.41092439 334.61083984 199.98388672 C327.37240294 207.81081443 317.53863193 213.8164917 306.71240234 214.43310547 C288.06476117 214.8826664 277.58867415 208.92703733 264.07177734 196.60888672 C254.72800162 188.17101723 245.05722136 180.1683358 235.08642578 172.48486328 C233.22647814 171.04263672 231.38294381 169.58123329 229.54052734 168.11669922 C210.98880291 153.49674273 191.00249077 140.33846785 170.25146484 129.06201172 C169.37103516 128.58070801 168.49060547 128.0994043 167.58349609 127.60351562 C93.99858628 87.61673671 11.3037245 73.80431929 -69.82287598 97.48590088 C-88.46489074 103.06314263 -106.30228233 110.48882144 -123.74853516 119.06201172 C-124.5707959 119.46355469 -125.39305664 119.86509766 -126.24023438 120.27880859 C-152.41116337 133.18972862 -176.55157293 149.84372957 -198.90625 168.52832031 C-200.60930354 169.94610223 -202.32685659 171.34371765 -204.04931641 172.73779297 C-209.78846631 177.45344964 -215.16990049 182.4262784 -220.38525391 187.71826172 C-221.13670433 188.47920639 -221.13670433 188.47920639 -221.90333557 189.25552368 C-224.42039888 191.80965459 -226.9219956 194.37672471 -229.40307617 196.96582031 C-239.6393242 207.52889142 -249.71687247 213.89674504 -264.66040039 214.40576172 C-277.19232398 214.58785801 -286.96539738 211.51051854 -296.59619141 203.15966797 C-304.14195309 195.80563163 -309.30647562 186.36449513 -309.95166016 175.70654297 C-310.11257639 162.55164114 -307.43461015 152.30790025 -298.27587891 142.38232422 C-296.57670513 140.69566277 -294.85811627 139.02820576 -293.11572266 137.38623047 C-290.76572848 135.07889296 -288.80232541 132.63132827 -286.74853516 130.06201172 C-285.53018999 128.92301256 -284.28023792 127.81671464 -282.99853516 126.74951172 C-280.17087593 124.33845054 -277.52062708 121.85651837 -274.93603516 119.18701172 C-271.09859055 115.2973062 -266.97660764 111.88508085 -262.71728516 108.46826172 C-260.1585275 106.39432131 -257.6507855 104.27351714 -255.15698242 102.12231445 C-214.60037773 67.23631351 -165.98693095 40.03863802 -115.74853516 22.06201172 C-114.82347168 21.72975586 -113.8984082 21.3975 -112.9453125 21.05517578 C-99.42158654 16.24969105 -85.69497534 12.43058218 -71.74853516 9.06201172 C-70.96897461 8.87010254 -70.18941406 8.67819336 -69.38623047 8.48046875 C-46.85108348 3.01245438 -23.15610475 0.3830696 0 0 Z " fill="#FEFEFE" transform="translate(2861.74853515625,940.93798828125)"/>
<path d="M0 0 C1.13274174 -0.00453111 2.26548348 -0.00906223 3.43255073 -0.01373065 C7.22467277 -0.02638142 11.01665132 -0.0247538 14.80879211 -0.02310181 C17.52924134 -0.02800075 20.24968052 -0.03583569 22.97012329 -0.04345703 C29.5913183 -0.06004669 36.21247768 -0.06556568 42.83369174 -0.06668179 C48.21862935 -0.06763335 53.60355525 -0.07174907 58.98848915 -0.07808304 C74.270183 -0.09569093 89.55184879 -0.10492277 104.83355286 -0.10342209 C106.06846426 -0.10330222 106.06846426 -0.10330222 107.32832336 -0.10317993 C108.56475037 -0.10305729 108.56475037 -0.10305729 109.8261557 -0.10293217 C123.17749608 -0.10211969 136.52872352 -0.12124884 149.88003125 -0.14945666 C163.60318943 -0.17822027 177.32629261 -0.19199501 191.04948169 -0.19026911 C198.74828379 -0.18960635 206.44696754 -0.1950486 214.14574242 -0.21662521 C220.70214432 -0.23488298 227.25837424 -0.23914693 233.81479063 -0.22560637 C237.15618575 -0.2190992 240.49698367 -0.2210722 243.83839035 -0.23631287 C247.47092076 -0.25180423 251.10259476 -0.24243013 254.73510742 -0.22705078 C256.29803946 -0.24248147 256.29803946 -0.24248147 257.89254588 -0.25822389 C272.36125699 -0.12352477 285.53576332 6.09460793 295.99751282 15.95492554 C303.45458813 23.85558893 308.20179865 32.72331613 310.68501282 43.26742554 C310.94274727 44.1697718 310.94274727 44.1697718 311.20568848 45.09034729 C311.74315984 47.53152776 311.83371981 49.75731695 311.86201477 52.25692749 C311.87485001 53.24928909 311.88768524 54.2416507 311.90090942 55.26408386 C311.91198982 56.86868721 311.91198982 56.86868721 311.92329407 58.50570679 C311.93136581 59.61866623 311.93943756 60.73162567 311.94775391 61.87831116 C311.9615874 64.23952686 311.97231284 66.60076249 311.98017883 68.96200562 C311.99164076 71.35431866 312.0119993 73.74660732 312.04170227 76.13876343 C312.29401756 96.46917351 311.53657963 115.53759889 296.85298157 131.29086304 C289.17961651 138.28675983 280.73925468 143.49136162 270.68501282 146.26742554 C269.53851257 146.60732041 268.39201233 146.94721529 267.21076965 147.29741001 C261.9964885 148.58631904 256.88903145 148.55423664 251.54243469 148.5415802 C250.44024566 148.54681688 249.33805662 148.55205356 248.20246792 148.55744892 C244.51952921 148.57241684 240.83672983 148.57315339 237.15376282 148.57382202 C234.50862044 148.5814458 231.86348962 148.58982544 229.21835327 148.5990448 C222.03823016 148.62183997 214.85813672 148.62980983 207.67798233 148.63487124 C203.18787957 148.63813535 198.69778532 148.64466221 194.20768738 148.65187263 C181.75676755 148.6714332 169.30585561 148.68784 156.85491943 148.69074917 C155.6610444 148.69103052 155.6610444 148.69103052 154.44305068 148.69131756 C152.82977518 148.69168379 151.21649967 148.69204749 149.60322416 148.69240867 C148.40210066 148.69268289 148.40210066 148.69268289 147.17671204 148.69296265 C145.9741086 148.69323347 145.9741086 148.69323347 144.74721014 148.69350976 C131.77043475 148.69704772 118.79382568 148.72404881 105.81710792 148.76146054 C92.46906205 148.79963224 79.12109851 148.8189073 65.7729969 148.81920868 C58.28867028 148.81979134 50.80454198 148.82815879 43.32026672 148.85720634 C36.94440451 148.88183946 30.56881291 148.88892358 24.19291586 148.87395882 C20.94617489 148.86683748 17.70007248 148.87021358 14.45337105 148.89036942 C-7.0957744 149.01592137 -24.31744162 146.91675179 -40.62748718 131.45492554 C-55.42675195 115.85949779 -57.11212719 98.72864187 -56.85697937 78.15097046 C-56.81494808 74.57660031 -56.81594198 71.00411214 -56.82279968 67.42953491 C-56.81230957 65.12157931 -56.79937243 62.81363326 -56.78373718 60.50570679 C-56.78353577 59.45538773 -56.78333435 58.40506866 -56.78312683 57.32292175 C-56.52085509 40.646008 -50.6713986 27.27747847 -39.35795593 15.17367554 C-28.33560036 4.53986311 -15.01756341 -0.04416683 0 0 Z " fill="#FEFEFE" transform="translate(823.3149871826172,3059.7325744628906)"/>
<path d="M0 0 C1.13415287 -0.00382555 2.26830574 -0.00765109 3.43682688 -0.01159257 C7.23362258 -0.02190354 11.03026651 -0.01793395 14.82707214 -0.01396179 C17.55076534 -0.0172163 20.27445013 -0.02342827 22.99813843 -0.02944946 C29.62668804 -0.0421871 36.25519712 -0.04399128 42.88375691 -0.0416492 C48.27347851 -0.03986465 53.66318782 -0.04161863 59.05290794 -0.04587364 C59.82062271 -0.04646883 60.58833748 -0.04706402 61.37931633 -0.04767724 C62.93905428 -0.04888903 64.49879223 -0.05010316 66.05853017 -0.05131962 C80.68041087 -0.06219179 95.3022685 -0.06003434 109.92415049 -0.05393478 C123.28975564 -0.04876728 136.65528787 -0.06001721 150.02087859 -0.07903299 C163.7553261 -0.09842325 177.48973914 -0.10666523 191.22420043 -0.10290974 C198.93073945 -0.10099932 206.63721644 -0.10346962 214.34374428 -0.11762428 C220.9053075 -0.12955428 227.46677049 -0.13092496 234.02833513 -0.11883412 C237.37344487 -0.11295634 240.71822172 -0.11345095 244.06334305 -0.12383652 C247.6964505 -0.13430152 251.32906821 -0.12620449 254.9621582 -0.11352539 C256.00993858 -0.12089968 257.05771895 -0.12827396 258.13725024 -0.13587171 C273.51746739 -0.0232287 286.78308106 6.53117872 297.67155457 17.26069641 C301.12143514 21.34171793 304.24675489 25.49522277 306.67155457 30.26069641 C307.11579773 31.09496155 307.56004089 31.92922668 308.01774597 32.78877258 C313.18244589 44.41256269 312.42508466 56.78828603 312.32341003 69.27314758 C312.29663801 73.18600027 312.32323143 77.09597857 312.35514832 81.00874329 C312.38294087 100.72496726 310.38069277 116.91612591 296.42155457 132.01069641 C283.76375842 143.76838261 268.72432265 148.41548945 251.82522583 148.40113831 C250.73079605 148.40410943 249.63636627 148.40708055 248.50877196 148.41014171 C244.84028745 148.4188155 241.17183562 148.42033585 237.50334167 148.42182922 C234.87333608 148.42645837 232.24333116 148.43148316 229.61332703 148.43687439 C222.46634486 148.45043604 215.31936833 148.45647927 208.17237544 148.46088505 C203.70542644 148.46365158 199.2384796 148.46788972 194.77153206 148.47238922 C182.39188619 148.48457989 170.01224204 148.49487906 157.63259029 148.49826431 C156.8407839 148.49848388 156.04897751 148.49870344 155.23317698 148.49892966 C154.43952554 148.49914794 153.64587411 148.49936622 152.82817262 148.49959111 C151.2200584 148.50003457 149.61194418 148.50048113 148.00382996 148.50093079 C146.80732146 148.50126293 146.80732146 148.50126293 145.58664108 148.50160179 C132.67242564 148.50554662 119.75826673 148.52299193 106.84407311 148.54629031 C93.56956247 148.57004439 80.29508015 148.58246803 67.02054793 148.58363223 C59.57378627 148.5845468 52.12709826 148.59024386 44.68035698 148.60845184 C38.33698409 148.62390781 31.9937076 148.62894113 25.65031945 148.62071374 C22.41828397 148.61682633 19.18648138 148.61929904 15.95446205 148.63177109 C-6.443416 148.71310458 -23.97495324 147.2635268 -40.89094543 130.91304016 C-55.41793859 115.10562292 -56.14701663 97.55593991 -55.9803009 77.11787415 C-55.95347773 73.20291059 -55.98015708 69.29080769 -56.01203918 65.37593079 C-56.04755703 41.00088513 -56.04755703 41.00088513 -50.32844543 30.26069641 C-49.97314758 29.56242737 -49.61784973 28.86415833 -49.25178528 28.14472961 C-41.80905536 14.82279167 -29.49382923 6.23262857 -15.35385609 1.20252705 C-10.29805794 -0.20257169 -5.21100448 -0.01867671 0 0 Z " fill="#FEFEFE" transform="translate(1728.3284454345703,3059.739303588867)"/>
<path d="M0 0 C1.93746094 0.32484375 1.93746094 0.32484375 3.9140625 0.65625 C7.63629647 1.33744315 11.3178341 2.13310513 15 3 C15.83966309 3.19432617 16.67932617 3.38865234 17.54443359 3.58886719 C31.59517228 6.89114865 44.76704442 11.26135733 58 17 C59.54944788 17.65762579 61.09892666 18.31517882 62.6484375 18.97265625 C88.31807315 29.995128 112.2732467 44.43459625 134 62 C134.98742188 62.78761719 135.97484375 63.57523438 136.9921875 64.38671875 C139.68715871 66.56222449 142.34860593 68.77162037 145 71 C145.5475293 71.45729492 146.09505859 71.91458984 146.65917969 72.38574219 C153.66417647 78.24706603 160.38966381 84.21646003 166.765625 90.76953125 C168.80730524 92.80764212 170.90833978 94.657079 173.125 96.5 C181.64609481 103.83090141 189.20217468 113.3826686 190.15698242 124.89233398 C190.88512731 138.09511198 189.20610932 148.69435075 180.5859375 159.26171875 C172.27745993 168.36830131 162.00394296 173.40116294 149.7109375 174.21875 C133.43399 174.64429111 123.54674668 169.48862428 111.796875 158.6875 C108.49403231 155.51381875 105.27979065 152.25992682 102.0625 149 C96.34986948 143.22450065 90.4136114 137.99623872 84 133 C82.91013941 132.12142527 81.82166308 131.24113138 80.734375 130.359375 C39.168474 96.84856142 -8.19722834 79.14122937 -61.83496094 83.21533203 C-66.66416542 83.73834698 -71.3077352 84.75234578 -76 86 C-77.18529297 86.29003906 -77.18529297 86.29003906 -78.39453125 86.5859375 C-91.97926024 89.92543082 -104.47335167 94.80811035 -117 101 C-117.68819824 101.33789551 -118.37639648 101.67579102 -119.08544922 102.02392578 C-138.72661985 111.77889471 -156.16390525 124.91583493 -172 140 C-172.74121094 140.68835937 -173.48242188 141.37671875 -174.24609375 142.0859375 C-177.97893804 145.6514223 -181.06750649 149.35347471 -184.0625 153.5625 C-191.28184958 163.64733322 -199.86434695 171.22817491 -212.484375 173.67578125 C-227.54189381 175.0644191 -238.93576539 173.42661677 -251 164 C-251.61617187 163.52175781 -252.23234375 163.04351563 -252.8671875 162.55078125 C-260.55412385 155.76919518 -265.47638091 144.95297481 -266.23828125 134.8359375 C-266.68720599 113.90186809 -253.6945716 99.32640567 -239.97558594 84.86621094 C-231.75886322 76.34947096 -223.41556956 68.19420195 -214 61 C-212.71536643 59.98796772 -211.4315783 58.97486177 -210.1484375 57.9609375 C-186.19452689 39.17241066 -159.50439539 23.75870889 -131 13 C-129.97648437 12.59265625 -128.95296875 12.1853125 -127.8984375 11.765625 C-87.78624702 -3.5626066 -42.26606149 -7.63515949 0 0 Z " fill="#FEFEFE" transform="translate(2917,1095)"/>
<path d="M0 0 C0.97234085 -0.01606293 1.9446817 -0.03212585 2.94648743 -0.04867554 C7.42085814 -0.09361297 11.89508421 -0.1342563 16.36962891 -0.15722656 C18.71348058 -0.1736905 21.05728408 -0.20085168 23.40087891 -0.23925781 C43.78848959 -0.57113908 58.69017581 0.89645038 74.30932617 15.21630859 C83.91757735 25.10013103 89.42454668 38.37007942 89.37644958 52.11524963 C89.38168626 52.87104228 89.38692294 53.62683493 89.39231831 54.40553039 C89.40721574 56.91616043 89.40802119 59.42658481 89.40869141 61.93725586 C89.41631999 63.74659057 89.42474868 65.55592206 89.43391418 67.36524963 C89.4558015 72.26645953 89.46465072 77.16760705 89.46974063 82.06886029 C89.47339207 85.13713579 89.47963632 88.20539515 89.48674202 91.27366447 C89.51121981 101.99584541 89.52428409 112.71797811 89.52783203 123.44018555 C89.53146245 133.40469754 89.56132677 143.36890061 89.60323662 153.33331829 C89.63803821 161.91114836 89.6533822 170.48887657 89.65407807 179.06677669 C89.65486774 184.17964744 89.6634627 189.29220345 89.69207573 194.40500069 C89.71842489 199.22082264 89.72036844 204.03607273 89.70442009 208.85193443 C89.70261872 210.60817853 89.70917608 212.3644568 89.7252388 214.12062836 C89.87797273 231.92101448 85.83362358 246.96766905 73.41479492 260.44287109 C61.83705492 271.36992416 48.09381626 275.29896259 32.60229492 275.43115234 C31.68955811 275.43922409 30.77682129 275.44729584 29.83642578 275.45561218 C27.90667592 275.46940404 25.97690216 275.48014796 24.04711914 275.48803711 C22.09815178 275.49950923 20.14921464 275.5198846 18.20043945 275.54956055 C-1.74051221 275.85261967 -17.40788355 272.95346062 -32.50317383 258.88037109 C-44.15191704 245.8064146 -46.34811806 231.58882929 -46.30175781 214.72070312 C-46.30746614 212.84561762 -46.31443219 210.97053558 -46.32255554 209.09545898 C-46.3404517 204.02098463 -46.33932513 198.94668354 -46.33361316 193.87218714 C-46.33051593 189.62781916 -46.33661976 185.38348421 -46.3426519 181.13912094 C-46.35668413 171.12169053 -46.3551469 161.10434544 -46.34375 151.08691406 C-46.33227217 140.77072286 -46.34634187 130.45479173 -46.37314647 120.1386348 C-46.39533657 111.26445094 -46.40193333 102.39034853 -46.39607006 93.51613891 C-46.39270696 88.22350642 -46.39507248 82.93104058 -46.41232109 77.63843155 C-46.42784072 72.6593189 -46.4237791 67.68059007 -46.40501595 62.70149231 C-46.40134383 60.88069098 -46.40439809 59.05986089 -46.41490173 57.23908615 C-46.46676918 47.49976998 -46.28400734 39.13880044 -41.89770508 30.19287109 C-41.41688477 29.20931641 -40.93606445 28.22576172 -40.44067383 27.21240234 C-32.48511953 14.25883411 -21.95304963 5.02470149 -7.08052063 0.65951538 C-4.67166194 0.14454739 -2.46302001 0.03718282 0 0 Z " fill="#487EB3" transform="translate(864.897705078125,1747.80712890625)"/>
<path d="M0 0 C1.35763962 -0.01441132 1.35763962 -0.01441132 2.7427063 -0.02911377 C3.7104599 -0.03336365 4.6782135 -0.03761353 5.67529297 -0.04199219 C6.68534393 -0.04769226 7.6953949 -0.05339233 8.73605347 -0.05926514 C10.87269042 -0.06869841 13.00934181 -0.07524246 15.14599609 -0.07910156 C18.38519319 -0.08877081 21.62374559 -0.1197956 24.86279297 -0.15136719 C26.94612256 -0.15790171 29.02945667 -0.16315041 31.11279297 -0.16699219 C32.06840118 -0.17933899 33.0240094 -0.19168579 34.00857544 -0.20440674 C48.85772976 -0.15617786 60.68837375 5.73237854 71.60498047 15.66113281 C81.0574688 25.62248267 86.6219878 39.32229948 86.55990601 53.01431274 C86.56443712 53.76264386 86.56896823 54.51097497 86.57363665 55.28198278 C86.58620687 57.76731722 86.58466508 60.25243044 86.58300781 62.73779297 C86.58899781 64.5290454 86.59580444 66.32029525 86.60336304 68.11154175 C86.62098548 72.96310686 86.62571693 77.81460136 86.62699461 82.66619539 C86.62841927 85.70297123 86.63269491 88.73972929 86.63798904 91.7765007 C86.65647923 102.38730757 86.66466121 112.99806428 86.66308594 123.60888672 C86.66188588 133.47226515 86.68296415 143.33542429 86.71457326 153.19874728 C86.7408021 161.68823951 86.75145042 170.17766042 86.75017512 178.66719282 C86.74966729 183.72800182 86.75525078 188.78861596 86.77653122 193.84938431 C86.7960244 198.61507992 86.79596297 203.38039705 86.78149796 208.14610672 C86.7794222 209.88502562 86.78403627 211.62396891 86.79621887 213.36284637 C86.91060458 230.83593771 83.63599382 247.07584172 71.25732422 260.32128906 C59.4818806 271.34759909 46.39625901 275.28072199 30.62841797 275.39941406 C29.59995758 275.40748581 28.57149719 275.41555756 27.51187134 275.4238739 C25.33833479 275.43767188 23.16477697 275.44841309 20.99121094 275.45629883 C18.78606744 275.46779914 16.58095135 275.4882198 14.37597656 275.51782227 C-9.27716149 275.83496921 -9.27716149 275.83496921 -18.70751953 271.16113281 C-19.78388672 270.63132812 -20.86025391 270.10152344 -21.96923828 269.55566406 C-34.83571969 261.16448054 -44.07062691 250.69632055 -48.06584358 235.62070847 C-49.4021771 228.41590841 -49.13209602 221.0716418 -49.11157227 213.76904297 C-49.11728356 211.92646371 -49.12425074 210.08388798 -49.13237 208.24131775 C-49.15023328 203.26393076 -49.14914584 198.28672074 -49.14342761 193.30931139 C-49.14032565 189.14207657 -49.14643943 184.97487524 -49.15246636 180.8076452 C-49.16648774 170.97036764 -49.16497037 161.13317697 -49.15356445 151.29589844 C-49.14208727 141.17397214 -49.15615772 131.05231094 -49.18296093 120.93041956 C-49.20516899 112.21497353 -49.21174377 103.49961039 -49.20588452 94.78413808 C-49.20252575 89.58983913 -49.20485784 84.39571003 -49.22213554 79.20143509 C-49.23768406 74.31421433 -49.23356198 69.42738407 -49.2148304 64.5401783 C-49.21116622 62.75569161 -49.21418895 60.97117548 -49.22471619 59.18671608 C-49.31856728 41.95050981 -46.10967794 27.76165998 -33.83251953 14.84863281 C-24.5152151 6.10360044 -12.9992349 0.11225792 0 0 Z " fill="#3B8DB6" transform="translate(867.70751953125,1015.8388671875)"/>
<path d="M0 0 C17.92313886 13.19823407 29.81206442 31.36505933 33.59765625 53.38671875 C34.02648832 58.02140378 34.12334297 62.60889001 34.09765625 67.26171875 C34.08798828 69.10479614 34.08798828 69.10479614 34.078125 70.98510742 C33.88890664 80.38440492 32.7396861 87.85009626 28.59765625 96.38671875 C28.31889648 96.99725098 28.04013672 97.6077832 27.75292969 98.23681641 C18.44364267 118.49972188 3.09804324 132.75860975 -17.40234375 141.38671875 C-21.68761571 142.96342204 -25.97720914 144.26493303 -30.40234375 145.38671875 C-31.28019531 145.61230469 -32.15804687 145.83789062 -33.0625 146.0703125 C-54.1282321 150.67744848 -76.78558326 146.25563916 -95.08984375 135.13671875 C-108.03085652 126.37457469 -117.69373232 116.77205427 -125.15234375 103.07421875 C-125.51739014 102.41156006 -125.88243652 101.74890137 -126.25854492 101.06616211 C-131.89809283 90.25605963 -134.0981836 79.71544923 -133.90234375 67.57421875 C-133.8880835 66.34662842 -133.87382324 65.11903809 -133.85913086 63.85424805 C-133.3457059 41.72139016 -125.32561539 23.70560344 -109.40234375 8.38671875 C-108.67402344 7.65066406 -107.94570312 6.91460938 -107.1953125 6.15625 C-78.41544364 -21.44893033 -32.0179079 -21.50145685 0 0 Z " fill="#FEFEFE" transform="translate(2930.40234375,1274.61328125)"/>
</svg>
