<?xml version="1.0" encoding="UTF-8"?>
<svg version="1.1" xmlns="http://www.w3.org/2000/svg" width="512" height="512">
<path d="M0 0 C1.01790619 0.00215515 2.03581238 0.0043103 3.08456421 0.00653076 C17.69363523 0.05620146 32.02575853 0.30709809 46.375 3.3125 C47.34985352 3.51117676 48.32470703 3.70985352 49.32910156 3.91455078 C97.7109774 14.03517194 141.69928269 35.9516877 177.375 70.3125 C178.3640332 71.26068604 178.3640332 71.26068604 179.37304688 72.22802734 C188.86130305 81.37247479 197.6012044 90.66984009 205.375 101.3125 C206.23306152 102.46355017 207.09113451 103.61459177 207.94921875 104.765625 C213.98677396 112.95525981 219.36957302 121.45788276 224.375 130.3125 C224.7771875 131.01971191 225.179375 131.72692383 225.59375 132.45556641 C238.6191741 155.59095836 247.36801461 180.76212409 252.6875 206.75 C252.83485596 207.46889404 252.98221191 208.18778809 253.1340332 208.9284668 C256.10789088 224.57475609 256.74800362 240.04818046 256.6875 255.9375 C256.68534485 256.95540619 256.6831897 257.97331238 256.68096924 259.02206421 C256.63129854 273.63113523 256.38040191 287.96325853 253.375 302.3125 C253.07698486 303.77478027 253.07698486 303.77478027 252.77294922 305.26660156 C240.30899799 364.85082385 208.33955313 421.10212629 159.375 458.3125 C158.83472168 458.72918945 158.29444336 459.14587891 157.73779297 459.57519531 C123.1963988 486.12762111 82.56265709 503.96885845 39.375 510.3125 C38.17037109 510.48982666 36.96574219 510.66715332 35.72460938 510.84985352 C24.06732646 512.448825 12.50313902 512.6709053 0.75 512.625 C-0.70483292 512.62226578 -0.70483292 512.62226578 -2.1890564 512.61947632 C-16.54056055 512.57408309 -30.50442918 512.0687347 -44.625 509.3125 C-45.52202637 509.15152832 -46.41905273 508.99055664 -47.34326172 508.82470703 C-108.97400546 497.67268126 -167.47284615 461.99947817 -204.625 411.3125 C-205.26211914 410.45857666 -205.26211914 410.45857666 -205.91210938 409.58740234 C-212.42768015 400.84658179 -218.26088547 391.80163672 -223.625 382.3125 C-224.0271875 381.60528809 -224.429375 380.89807617 -224.84375 380.16943359 C-237.8691741 357.03404164 -246.61801461 331.86287591 -251.9375 305.875 C-252.08485596 305.15610596 -252.23221191 304.43721191 -252.3840332 303.6965332 C-255.35789088 288.05024391 -255.99800362 272.57681954 -255.9375 256.6875 C-255.93534485 255.66959381 -255.9331897 254.65168762 -255.93096924 253.60293579 C-255.88129854 238.99386477 -255.63040191 224.66174147 -252.625 210.3125 C-252.42632324 209.33764648 -252.22764648 208.36279297 -252.02294922 207.35839844 C-241.90232806 158.9765226 -219.9858123 114.98821731 -185.625 79.3125 C-184.99287598 78.65314453 -184.36075195 77.99378906 -183.70947266 77.31445312 C-174.56502521 67.82619695 -165.26765991 59.0862956 -154.625 51.3125 C-153.47394983 50.45443848 -152.32290823 49.59636549 -151.171875 48.73828125 C-142.98224019 42.70072604 -134.47961724 37.31792698 -125.625 32.3125 C-124.91778809 31.9103125 -124.21057617 31.508125 -123.48193359 31.09375 C-100.94703464 18.4064086 -76.68201763 9.9530165 -51.4375 4.5625 C-50.51267822 4.36366211 -49.58785645 4.16482422 -48.63500977 3.95996094 C-32.42831484 0.66808631 -16.49462105 -0.0628085 0 0 Z M65.375 124.3125 C64.7871875 124.77527344 64.199375 125.23804687 63.59375 125.71484375 C61.09374108 127.88846261 60.40183014 129.12085616 59.9375 132.4375 C60.19655068 135.50330542 60.19655068 135.50330542 62.375 138.3125 C64.55706496 139.55829204 64.55706496 139.55829204 67.375 139.3125 C70.13969104 137.76569283 72.49992036 135.76243733 74.9375 133.75 C86.71455908 124.49419652 99.17209892 118.23135666 114.375 117.3125 C115.24382812 117.25964844 116.11265625 117.20679687 117.0078125 117.15234375 C134.39247443 116.61921412 153.28447903 122.00592438 166.25390625 134.05859375 C166.76824219 134.59613281 167.28257812 135.13367188 167.8125 135.6875 C170.33928611 138.27591504 170.98197497 138.85701609 174.375 139.3125 C177.1609011 138.37446218 177.1609011 138.37446218 179.375 136.3125 C180.71050847 133.46622409 180.71050847 133.46622409 180.375 130.3125 C178.42138578 127.68703562 178.42138578 127.68703562 175.375 125.3125 C174.81554687 124.77753906 174.25609375 124.24257812 173.6796875 123.69140625 C157.21032409 108.22123016 136.14279925 103.74127122 114.28515625 104.04296875 C95.92949362 104.63716418 79.4499239 112.83945464 65.375 124.3125 Z M-143.625 117.3125 C-143.625 144.7025 -143.625 172.0925 -143.625 200.3125 C-85.875 200.3125 -28.125 200.3125 31.375 200.3125 C31.375 172.9225 31.375 145.5325 31.375 117.3125 C-26.375 117.3125 -84.125 117.3125 -143.625 117.3125 Z M84.375 154.3125 C82.97564987 157.11120027 83.12234595 159.21748792 83.375 162.3125 C84.29166667 164.39583333 84.29166667 164.39583333 86.375 165.3125 C92.09289731 165.42245956 94.49487267 163.5589909 98.41796875 159.875 C105.65852509 154.09411669 115.39973382 152.7414798 124.375 153.3125 C132.59930103 154.41558961 139.10303817 157.39332913 145.5 162.625 C148.34673144 164.84410561 148.99673122 165.30549502 152.75 165.375 C155.67021853 164.47974799 155.67021853 164.47974799 157.375 161.3125 C157.52281072 158.06066412 157.03195689 156.10729254 154.94140625 153.578125 C143.75998737 143.07084572 130.49341724 139.64853388 115.63671875 140 C103.99573916 140.62071431 92.93781951 146.57834045 84.375 154.3125 Z M116.125 181.4375 C114.09191822 183.2589041 114.09191822 183.2589041 113.9375 186.3125 C114.14108522 189.25965536 114.14108522 189.25965536 115.625 191.125 C117.7131215 192.54193959 118.82778338 193.23758186 121.375 193.3125 C124.32618716 191.95176358 124.32618716 191.95176358 126.375 189.3125 C126.5466367 185.68010187 126.5466367 185.68010187 125.375 182.3125 C121.89245693 179.99080462 119.95216287 179.52391857 116.125 181.4375 Z M-143.625 215.3125 C-143.625 271.0825 -143.625 326.8525 -143.625 384.3125 C-85.875 384.3125 -28.125 384.3125 31.375 384.3125 C31.375 328.5425 31.375 272.7725 31.375 215.3125 C-26.375 215.3125 -84.125 215.3125 -143.625 215.3125 Z M-125.625 399.3125 C-124.635 402.2825 -123.645 405.2525 -122.625 408.3125 C-115.365 408.3125 -108.105 408.3125 -100.625 408.3125 C-99.635 405.3425 -98.645 402.3725 -97.625 399.3125 C-106.865 399.3125 -116.105 399.3125 -125.625 399.3125 Z M-14.625 399.3125 C-13.965 402.2825 -13.305 405.2525 -12.625 408.3125 C-5.035 408.3125 2.555 408.3125 10.375 408.3125 C11.365 405.3425 12.355 402.3725 13.375 399.3125 C4.135 399.3125 -5.105 399.3125 -14.625 399.3125 Z " fill="#3682BA" transform="translate(255.625,-0.3125)"/>
<path d="M0 0 C3.375 1.125 3.375 1.125 5.05883789 3.34765625 C7.31884625 8.11668892 6.84658119 12.93226582 6.8125 18.125 C6.83248047 19.20523437 6.85246094 20.28546875 6.87304688 21.3984375 C6.86820127 29.2483161 6.86820127 29.2483161 4.56640625 33.33984375 C2.375 35.125 2.375 35.125 -1.125 35.6875 C-5.20308531 35.03209343 -6.13182492 34.32783034 -8.625 31.125 C-9.45035857 26.85240011 -9.22769491 22.53091445 -9.1875 18.1875 C-9.21134766 17.00736328 -9.23519531 15.82722656 -9.25976562 14.61132812 C-9.24339768 4.97060706 -9.24339768 4.97060706 -6.31640625 1.81640625 C-3.625 0.125 -3.625 0.125 0 0 Z " fill="#3682BA" transform="translate(137.625,241.875)"/>
<path d="M0 0 C3.375 1.125 3.375 1.125 5.0625 2.9765625 C7.07336072 7.80023435 6.80810426 12.45372068 6.75 17.625 C6.76160156 18.65753906 6.77320313 19.69007813 6.78515625 20.75390625 C6.76276165 26.53917882 6.67907342 30.82092658 2.375 35.125 C-3.84470155 35.7117643 -3.84470155 35.7117643 -6.82006836 33.47436523 C-10.21851376 29.05082403 -9.23718452 23.55635113 -9.1875 18.1875 C-9.21134766 17.00736328 -9.23519531 15.82722656 -9.25976562 14.61132812 C-9.24339768 4.97060706 -9.24339768 4.97060706 -6.31640625 1.81640625 C-3.625 0.125 -3.625 0.125 0 0 Z " fill="#2194C3" transform="translate(137.625,140.875)"/>
</svg>
