<?xml version="1.0" encoding="UTF-8"?>
<svg id="_àð_1" data-name="˜àð_1" xmlns="http://www.w3.org/2000/svg" xmlns:xlink="http://www.w3.org/1999/xlink" viewBox="0 0 4000 4000">
  <defs>
    <style>
      .cls-1 {
        fill: #fff;
      }

      .cls-2 {
        fill: url(#Degradado_sin_nombre_5);
      }
    </style>
    <linearGradient id="Degradado_sin_nombre_5" data-name="Degradado sin nombre 5" x1="2000" y1="3966.29" x2="2000" y2="33.71" gradientUnits="userSpaceOnUse">
      <stop offset="0" stop-color="#6d54aa"/>
      <stop offset="1" stop-color="#27a4bb"/>
    </linearGradient>
  </defs>
  <rect class="cls-2" x="33.71" y="33.71" width="3932.58" height="3932.58" rx="1966.29" ry="1966.29"/>
  <g>
    <path class="cls-1" d="m2494.35,1049.38c-9.44,0-18.94-2.94-26.96-8.99-19.03-14.37-22.35-40.93-7.46-59.29,9.35-11.53,50.98-53.89,117.34-95.85,85.55-54.1,178.98-85.84,270.18-91.79,156.33-10.2,306.83,51.5,447.33,183.4,17.32,16.26,17.7,42.98.85,59.69-16.85,16.71-44.54,17.08-61.86.82-121.02-113.62-248.04-167.37-377.51-159.86-96.44,5.62-177.59,44.9-228.69,76.88-56.76,35.51-92.9,71.76-98.81,78.82-8.62,10.63-21.45,16.17-34.42,16.17Zm134.27,91.2c10.05-11.13,101.98-108.9,234.17-114.78,90.09-3.99,180.94,35.56,270.03,117.59,17.48,16.1,45.17,15.47,61.85-1.4,16.68-16.87,16.03-43.58-1.45-59.68-107.05-98.57-219.59-145.96-334.46-140.85-165.01,7.34-275.61,120.96-296.11,143.66-15.87,17.58-13.97,44.24,4.25,59.55,8.29,6.97,18.52,10.38,28.71,10.38,12.21,0,24.35-4.9,33-14.48Zm103.97,107.78c8.43-13.63,59.65-64.04,127.65-71.09,57.61-5.96,115.3,20.37,171.46,78.3,16.51,17.02,44.19,17.91,61.83,1.99,17.64-15.92,18.57-42.64,2.06-59.66-94.6-97.57-185.26-110.71-244.69-104.56-100.35,10.4-173.65,79.79-193.43,111.76-12.38,20.02-5.6,45.93,15.14,57.88,7.03,4.05,14.75,5.97,22.38,5.97,14.89,0,29.42-7.35,37.6-20.58Zm147.91,11.2c-46.39,0-83.99,36.28-83.99,81.04s37.6,81.04,83.99,81.04,83.99-36.28,83.99-81.04-37.6-81.04-83.99-81.04Z"/>
    <path class="cls-1" d="m691.97,830.74v645.7h1444.92v-645.7H691.97Zm261.89,408.06c0,29-23.51,52.51-52.51,52.51h-30.43c-29,0-52.51-23.51-52.51-52.51v-170.41c0-29,23.51-52.51,52.51-52.51h30.43c29,0,52.51,23.51,52.51,52.51v170.41Z"/>
    <path class="cls-1" d="m691.97,1544.17v1476.53h1444.92v-1476.53H691.97Zm261.89,426.12c0,29-23.51,52.51-52.51,52.51h-30.43c-29,0-52.51-23.51-52.51-52.51v-170.41c0-29,23.51-52.51,52.51-52.51h30.43c29,0,52.51,23.51,52.51,52.51v170.41Z"/>
    <rect class="cls-1" x="767.27" y="3059.68" width="367.65" height="147.95" rx="55.89" ry="55.89"/>
    <rect class="cls-1" x="1672.67" y="3059.68" width="367.65" height="147.95" rx="55.89" ry="55.89"/>
  </g>
</svg>