<?xml version="1.0" encoding="UTF-8"?>
<svg version="1.1" xmlns="http://www.w3.org/2000/svg" width="512" height="512">
<path d="M0 0 C1.01790619 0.00215515 2.03581238 0.0043103 3.08456421 0.00653076 C17.69363523 0.05620146 32.02575853 0.30709809 46.375 3.3125 C47.34985352 3.51117676 48.32470703 3.70985352 49.32910156 3.91455078 C97.7109774 14.03517194 141.69928269 35.9516877 177.375 70.3125 C178.3640332 71.26068604 178.3640332 71.26068604 179.37304688 72.22802734 C188.86130305 81.37247479 197.6012044 90.66984009 205.375 101.3125 C206.23306152 102.46355017 207.09113451 103.61459177 207.94921875 104.765625 C213.98736829 112.95680614 219.34595521 121.47054105 224.375 130.3125 C224.73948242 130.94430176 225.10396484 131.57610352 225.47949219 132.22705078 C247.08534998 169.97532572 256.85198095 212.74189997 256.6875 255.9375 C256.68534485 256.95540619 256.6831897 257.97331238 256.68096924 259.02206421 C256.63129854 273.63113523 256.38040191 287.96325853 253.375 302.3125 C253.07698486 303.77478027 253.07698486 303.77478027 252.77294922 305.26660156 C242.65232806 353.6484774 220.7358123 397.63678269 186.375 433.3125 C185.74287598 433.97185547 185.11075195 434.63121094 184.45947266 435.31054688 C175.31502521 444.79880305 166.01765991 453.5387044 155.375 461.3125 C154.22394983 462.17056152 153.07290823 463.02863451 151.921875 463.88671875 C143.73224019 469.92427396 135.22961724 475.30707302 126.375 480.3125 C125.66778809 480.7146875 124.96057617 481.116875 124.23193359 481.53125 C101.09654164 494.5566741 75.92537591 503.30551461 49.9375 508.625 C49.21860596 508.77235596 48.49971191 508.91971191 47.7590332 509.0715332 C33.08339502 511.86090125 18.55831162 512.66142619 3.64770508 512.62817383 C0.70811513 512.6250221 -2.2304558 512.64854926 -5.16992188 512.67382812 C-18.54306192 512.71848737 -31.43916711 511.51301542 -44.625 509.3125 C-46.33055054 509.03031616 -46.33055054 509.03031616 -48.07055664 508.74243164 C-91.33802759 500.97044532 -132.38793216 480.98345309 -165.625 452.3125 C-166.37007813 451.67828125 -167.11515625 451.0440625 -167.8828125 450.390625 C-181.38779833 438.57948485 -194.05918743 425.82889772 -204.625 411.3125 C-205.48149066 410.16255169 -206.33826433 409.01281411 -207.1953125 407.86328125 C-213.23534209 399.67315742 -218.61867614 391.16870382 -223.625 382.3125 C-224.0271875 381.60528809 -224.429375 380.89807617 -224.84375 380.16943359 C-237.8691741 357.03404164 -246.61801461 331.86287591 -251.9375 305.875 C-252.08485596 305.15610596 -252.23221191 304.43721191 -252.3840332 303.6965332 C-255.35789088 288.05024391 -255.99800362 272.57681954 -255.9375 256.6875 C-255.93534485 255.66959381 -255.9331897 254.65168762 -255.93096924 253.60293579 C-255.88129854 238.99386477 -255.63040191 224.66174147 -252.625 210.3125 C-252.42632324 209.33764648 -252.22764648 208.36279297 -252.02294922 207.35839844 C-241.90232806 158.9765226 -219.9858123 114.98821731 -185.625 79.3125 C-184.99287598 78.65314453 -184.36075195 77.99378906 -183.70947266 77.31445312 C-174.56502521 67.82619695 -165.26765991 59.0862956 -154.625 51.3125 C-153.47394983 50.45443848 -152.32290823 49.59636549 -151.171875 48.73828125 C-142.98224019 42.70072604 -134.47961724 37.31792698 -125.625 32.3125 C-124.91778809 31.9103125 -124.21057617 31.508125 -123.48193359 31.09375 C-100.34654164 18.0683259 -75.17537591 9.31948539 -49.1875 4 C-48.46860596 3.85264404 -47.74971191 3.70528809 -47.0090332 3.5534668 C-31.36274391 0.57960912 -15.88931954 -0.06050362 0 0 Z " fill="#00C5FF" transform="translate(255.625,-0.3125)"/>
<path d="M0 0 C3.10071157 1.90462996 5.46660256 4.40461078 8 7 C9.20285928 8.19428946 10.40743856 9.38684788 11.61328125 10.578125 C15.09747496 14.03069612 18.55344283 17.5098768 22 21 C25.43168483 19.5270746 27.59961609 17.61023256 30.1875 14.9375 C30.96867188 14.14085938 31.74984375 13.34421875 32.5546875 12.5234375 C33.36164063 11.69070312 34.16859375 10.85796875 35 10 C36.59938344 8.34951805 38.20337647 6.70348736 39.8125 5.0625 C40.52019531 4.33160156 41.22789062 3.60070312 41.95703125 2.84765625 C44.9982942 0.09714501 47.18772837 -0.89065574 51.25 -1.4375 C56.14981236 -0.86585522 59.26405139 0.82654253 63 4 C65.58516183 7.44688244 66.24831918 10.15313169 66.125 14.375 C64.82300783 21.9014629 58.81496448 26.47874611 53.00292969 30.91699219 C44.65653025 37.55422475 37.6480322 43.96207523 36.28320312 54.99414062 C35.51193991 63.27593851 35.81059117 71.59905615 36.16314697 79.89550781 C36.30954458 83.86418942 36.3386419 87.83376231 36.37890625 91.8046875 C36.47401182 99.54176201 36.69470278 107.26805376 37 115 C38.58298026 115.4803318 40.16639978 115.95921612 41.75 116.4375 C42.63171875 116.70433594 43.5134375 116.97117187 44.421875 117.24609375 C45.27265625 117.49488281 46.1234375 117.74367188 47 118 C47.71092804 118.23927216 48.42185608 118.47854431 49.15432739 118.72506714 C51.31756336 119.26854717 51.31756336 119.26854717 53.78076172 116.96142578 C54.84472633 115.97122453 55.89351136 114.96455644 56.9296875 113.9453125 C57.48367218 113.41034149 58.03765686 112.87537048 58.60842896 112.32418823 C59.7765295 111.18580247 60.93783072 110.04040463 62.09277344 108.88867188 C63.86274459 107.13712782 65.67071045 105.43267023 67.484375 103.7265625 C73.35878467 98.44835462 73.35878467 98.44835462 76.32275391 91.50268555 C75.76392502 89.19808329 74.91918556 87.18225348 74 85 C72.48988419 72.39173152 73.74639512 61.65545665 81.25 51.25 C87.16952197 44.09356299 95.66843576 37.70248849 105 36 C118.36383441 35.14460241 129.27872403 36.06496028 139.93359375 45.0234375 C147.78071718 52.52938165 153.03517367 60.74652094 153.41235352 71.80419922 C153.48257867 77.41266637 153.49530526 81.42106864 150 86 C145.22929953 89.39453687 141.99224187 90.87159882 136 90 C131.18421039 87.54489157 128.51654546 84.76346106 126 80 C125.43557854 77.71812468 124.99868642 75.43054506 124.5625 73.12109375 C123.75600814 70.07994735 122.19870541 68.19870541 120 66 C116.54260443 64.27130221 112.78024432 64.51033105 109 65 C106.12970131 66.79393668 104.50868362 67.98263276 103 71 C102.80241769 73.07564676 102.80241769 73.07564676 102.8125 75.375 C102.79832031 76.14585937 102.78414062 76.91671875 102.76953125 77.7109375 C103.02625281 80.26074826 103.66425485 81.82531316 105 84 C108.16282116 86.5697922 111.07487598 87.26578979 115 87.9375 C119.32042456 88.70900439 121.87168116 89.77392119 125 93 C127.98261067 97.47391601 127.6002363 101.75543534 127 107 C125.2423733 110.78565751 123.74404501 112.46853928 120.375 114.875 C115.43678985 116.52107005 109.80951922 117.20743989 104.90039062 115.09765625 C101.95481938 114.01181915 100.14024072 113.62852465 97 114 C92.00667837 117.49305616 88.08021597 121.87950396 84 126.375 C82.31141467 128.17833423 80.61441938 129.9732753 78.91357422 131.76504517 C77.86049206 132.88049249 76.81622343 134.00433857 75.78173828 135.13705444 C74.55933561 136.46099965 73.28409611 137.73580208 72 139 C71.34 139 70.68 139 70 139 C70.3609375 139.67546875 70.721875 140.3509375 71.09375 141.046875 C71.5578125 141.93890625 72.021875 142.8309375 72.5 143.75 C72.9640625 144.63171875 73.428125 145.5134375 73.90625 146.421875 C75 149 75 149 75 153 C117.31256776 157.75283767 117.31256776 157.75283767 155.06616211 144.49938965 C159.8027821 139.75983009 163.73609049 134.3637862 167.12475586 128.59790039 C169.24535714 125.66009044 170.55169377 124.93567793 174 124 C179.06292842 123.21243336 182.14117662 124.72158282 186.2265625 127.5234375 C188.95179976 129.79246764 190.01605435 131.58898841 191 135 C191.36503906 139.0079799 190.98820653 142.39121326 188.85546875 145.86328125 C187.01240717 148.0422933 185.04342547 150.00538246 183 152 C181.80571054 153.20285928 180.61315212 154.40743856 179.421875 155.61328125 C175.96930388 159.09747496 172.4901232 162.55344283 169 166 C170.4729254 169.43168483 172.38976744 171.59961609 175.0625 174.1875 C175.85914063 174.96867188 176.65578125 175.74984375 177.4765625 176.5546875 C178.30929687 177.36164063 179.14203125 178.16859375 180 179 C181.65048195 180.59938344 183.29651264 182.20337647 184.9375 183.8125 C185.66839844 184.52019531 186.39929688 185.22789062 187.15234375 185.95703125 C189.90285499 188.9982942 190.89065574 191.18772837 191.4375 195.25 C190.86585522 200.14981236 189.17345747 203.26405139 186 207 C182.55311756 209.58516183 179.84686831 210.24831918 175.625 210.125 C168.0985371 208.82300783 163.52125389 202.81496448 159.08300781 197.00292969 C152.44577525 188.65653025 146.03792477 181.6480322 135.00585938 180.28320312 C126.72406149 179.51193991 118.40094385 179.81059117 110.10449219 180.16314697 C106.13581058 180.30954458 102.16623769 180.3386419 98.1953125 180.37890625 C90.45823799 180.47401182 82.73194624 180.69470278 75 181 C74.87882813 181.59167969 74.75765625 182.18335938 74.6328125 182.79296875 C73.73255357 187.03803585 72.79543379 191.02439661 71 195 C74.52400575 198.77147807 78.07986979 202.50865034 81.66894531 206.21826172 C82.88459816 207.48416155 84.0911203 208.75889662 85.28808594 210.04248047 C87.01243841 211.8883669 88.7673408 213.69978987 90.53125 215.5078125 C91.32239197 216.37637375 91.32239197 216.37637375 92.1295166 217.26248169 C93.85821401 219.10123272 93.85821401 219.10123272 97 221 C99.23201005 220.89453664 100.98264375 220.42691769 103.0791626 219.66682434 C110.71791592 217.01500871 121.15932113 218.20151746 128.5 221.0625 C139.22800989 226.31643644 146.84838241 233.79915539 151.9375 244.6875 C153.89995658 250.68525791 153.85573594 257.81444417 153 264 C150.34279839 268.79865944 148.22201368 271.15693635 143 273 C138.64071448 273.54491069 136.60934344 273.33982615 132.75 271.1875 C128.23841238 267.59873712 126.72279684 265.90486377 125.5625 260.125 C124.50032314 255.52594102 123.60584264 252.2677949 120 249 C116.28985899 247.76328633 112.85561242 247.43631397 109 248 C106.1899654 249.79363911 104.49059532 251.01880935 103 254 C102.40325429 258.81659041 102.22841886 262.70484595 104.75 266.9375 C108.77169481 269.4897294 112.56012243 270.24940623 117.1796875 271.25390625 C122.03858783 272.53929401 124.28580456 274.92870683 127 279 C127.70522927 284.22361682 127.60457319 288.69784237 125.375 293.5 C121.24599542 297.84632061 117.72492322 299.17641009 111.8125 299.4375 C99.76790486 299.0611064 90.95800122 293.27884734 82.8125 284.875 C74.11900078 274.51824748 73.04191724 264.02655433 73.75048828 250.98486328 C74.06819945 248.45747406 75.02471013 246.33985852 76 244 C75.71092226 239.70328032 72.70112879 237.21624848 69.828125 234.32421875 C69.30869324 233.79480179 68.78926147 233.26538483 68.25408936 232.71992493 C67.15514079 231.6058144 66.0521093 230.49571848 64.9453125 229.3894043 C63.25389808 227.69141324 61.58792116 225.97089007 59.921875 224.24804688 C58.85043342 223.16780576 57.77756308 222.08897951 56.703125 221.01171875 C56.20709778 220.49413498 55.71107056 219.97655121 55.20001221 219.44328308 C52.39556004 216.66226355 52.39556004 216.66226355 48.64355469 215.99926758 C47.77118164 216.32950928 46.89880859 216.65975098 46 217 C45.30996887 217.24880417 44.61993774 217.49760834 43.90899658 217.75395203 C41.92891423 218.47463357 39.96325446 219.23466352 38 220 C32.76465681 260.30763786 32.76465681 260.30763786 43.71875 297.0625 C48.75641496 302.7528979 54.86283303 307.25915658 61.38623047 311.10888672 C64.33136227 313.23974707 65.06346983 314.54017612 66 318 C66.78789985 323.06507047 65.271719 326.13557855 62.484375 330.23046875 C59.36901124 333.94431029 56.18264107 334.85216987 51.5 335.4375 C43.38681462 334.42335183 38.07296642 327.31092266 32.625 321.75 C31.37783203 320.48929687 31.37783203 320.48929687 30.10546875 319.203125 C28.06568453 317.13989498 26.03073714 315.07212877 24 313 C20.56916005 314.47070373 18.42205931 316.37956094 15.84765625 319.0625 C15.07099609 319.85914063 14.29433594 320.65578125 13.49414062 321.4765625 C11.87492648 323.1569036 10.25773192 324.83919319 8.64257812 326.5234375 C7.86462891 327.32007813 7.08667969 328.11671875 6.28515625 328.9375 C5.23146851 330.03384766 5.23146851 330.03384766 4.15649414 331.15234375 C1.25086631 333.64184804 -1.44802056 334.92027503 -5.28125 335.1171875 C-10.29374375 334.5700491 -13.40104106 333.81707766 -17 330 C-18.86874297 326.90990002 -19.4031963 324.34718043 -19.5625 320.75 C-19.62566406 319.85796875 -19.68882812 318.9659375 -19.75390625 318.046875 C-18.12954073 311.48208172 -12.18918463 307.03479988 -7.00292969 303.06542969 C1.27810219 296.45532517 8.34206168 290.06646188 9.71679688 279.09960938 C10.48699676 270.94112955 10.18966496 262.74134967 9.83685303 254.5680542 C9.69041503 250.65971347 9.66135361 246.75046401 9.62109375 242.83984375 C9.52600697 235.22117346 9.30535629 227.61346007 9 220 C6.7770707 219.22996567 4.55109064 218.47800043 2.31253052 217.75439453 C0.63235925 217.20628846 -1.03316436 216.61263375 -2.68798828 215.9921875 C-5.81064765 216.00273925 -7.20274392 217.42869049 -9.40377808 219.51879883 C-9.92795319 220.04884521 -10.4521283 220.5788916 -10.9921875 221.125 C-11.54238556 221.66471436 -12.09258362 222.20442871 -12.65945435 222.76049805 C-13.81827837 223.90647946 -14.96940689 225.06028746 -16.11328125 226.22119141 C-17.86598225 227.99089477 -19.65264896 229.72012134 -21.4453125 231.44921875 C-22.5673667 232.56804802 -23.68723532 233.68907435 -24.8046875 234.8125 C-25.341008 235.32635254 -25.87732849 235.84020508 -26.42990112 236.36962891 C-28.13366559 238.05263723 -28.13366559 238.05263723 -30 241 C-29.99796284 244.70754272 -29.99796284 244.70754272 -29 248 C-27.48772385 253.89787698 -27.14486267 259.56960969 -29.1875 265.375 C-31.86551843 269.25350945 -34.52374767 271.50791589 -39 273 C-44.72719196 273.54030113 -47.55882194 272.6516353 -52 269 C-55.55344179 265.74267836 -56.28701932 263.05958162 -57 258.4375 C-57.51864703 255.19922484 -57.87336922 253.21273972 -59.5625 250.375 C-63.26242233 248.28786432 -66.77475933 247.8022851 -71 248 C-75.10213689 249.49168614 -76.57068209 250.35602313 -79 254 C-79.31600189 256.14790929 -79.31600189 256.14790929 -79.25 258.4375 C-79.25515625 259.19933594 -79.2603125 259.96117187 -79.265625 260.74609375 C-78.84752289 264.29381312 -77.76592284 266.37768769 -75 268.625 C-72.18881849 269.91345819 -70.08057553 270.38484638 -67.0625 270.875 C-61.25333409 271.91389703 -58.15746845 274.05799757 -54.625 278.875 C-53.32843222 283.28333045 -53.59337313 286.90852788 -55.1875 291.1875 C-57.79004599 295.22593343 -60.44119336 297.48039779 -65 299 C-75.06974762 300.03759224 -83.60497204 297.78284275 -91.75 291.75 C-93.19206831 290.52939218 -94.60992237 289.27950327 -96 288 C-96.639375 287.41476562 -97.27875 286.82953125 -97.9375 286.2265625 C-105.48806358 278.51327126 -108.45613619 268.92082918 -108.5625 258.3125 C-108.39541696 247.63340509 -104.89011753 239.43346392 -97.75 231.5 C-88.20953037 222.82684579 -80.01499568 218.50584343 -66.8828125 218.6640625 C-63 219 -63 219 -60.36523438 219.92431641 C-56.92952284 220.97651728 -54.58903634 221.40577279 -51 221 C-45.53650009 217.89799552 -41.41695847 212.7267002 -37.25 208.125 C-36.05541508 206.86012633 -34.85752321 205.59836718 -33.65625 204.33984375 C-30.73134685 201.2612729 -27.85482419 198.14360699 -25 195 C-25.28875 194.24074219 -25.5775 193.48148438 -25.875 192.69921875 C-26.24625 191.70535156 -26.6175 190.71148437 -27 189.6875 C-27.37125 188.70136719 -27.7425 187.71523438 -28.125 186.69921875 C-29 184 -29 184 -29 181 C-37.46912305 180.59236211 -45.92900558 180.31794717 -54.40661716 180.19947147 C-58.34701283 180.14050979 -62.27635866 180.04094127 -66.2121582 179.83764648 C-86.48966747 178.5198326 -86.48966747 178.5198326 -104.10107422 187.11279297 C-109.19831505 191.81850436 -113.52510755 197.13260979 -117.84580994 202.54696655 C-121.09168332 206.24312879 -124.39113894 208.37644094 -129.22265625 209.53125 C-134.29989945 209.44501232 -137.13903828 208.23243307 -141 205 C-143.89626035 201.70425546 -144.89660298 199.09600845 -145.3125 194.6875 C-144.61412226 186.4466427 -137.35130617 181.11252964 -131.75 175.625 C-130.48929688 174.37783203 -130.48929688 174.37783203 -129.203125 173.10546875 C-127.13989498 171.06568453 -125.07212877 169.03073714 -123 167 C-127.49164864 161.57806203 -132.30152366 156.64668302 -137.40820312 151.80664062 C-141.77084217 147.55651982 -144.65887815 143.7289748 -145.4375 137.5 C-144.77875665 132.23005323 -142.33024516 129.44426617 -138.8125 125.625 C-134.90468529 123.3671515 -131.41567733 123.19517211 -127 124 C-121.93486998 126.02986675 -119.99512335 128.04046197 -117.30078125 132.7265625 C-111.02658428 142.18138662 -103.91365494 150.37840131 -92.33898926 152.75018311 C-71.60005938 155.69718717 -49.83594506 154.14264354 -29 153 C-28.85506104 152.05817871 -28.71012207 151.11635742 -28.56079102 150.14599609 C-28.0387401 147.21732912 -27.32614695 145.22311365 -25.9375 142.625 C-25.57527344 141.93664062 -25.21304688 141.24828125 -24.83984375 140.5390625 C-24.56269531 140.03117188 -24.28554687 139.52328125 -24 139 C-24.55397461 138.77852295 -25.10794922 138.5570459 -25.67871094 138.32885742 C-28.74278243 136.57478284 -30.7375996 134.3239001 -33.140625 131.73828125 C-34.13824243 130.69102695 -35.13697557 129.64483456 -36.13671875 128.59960938 C-37.69912934 126.95684203 -39.25343861 125.30876747 -40.78955078 123.64135742 C-42.28181133 122.0276449 -43.80148047 120.44441292 -45.328125 118.86328125 C-46.2243457 117.90719971 -47.12056641 116.95111816 -48.04394531 115.96606445 C-51.18504731 113.87692551 -51.69713245 113.74437049 -55.21826172 114.16186523 C-57.20999923 114.60328776 -59.20094998 115.05041756 -61.1796875 115.546875 C-70.90379771 117.96746896 -80.61695062 115.05117981 -89.125 110.375 C-96.90005478 105.43612872 -102.64725785 98.58102819 -106 90 C-106.35191406 89.10667969 -106.70382813 88.21335937 -107.06640625 87.29296875 C-110.29002909 75.92261707 -108.65979842 65.1902246 -103.01953125 55.015625 C-97.27185117 46.43301568 -89.1071851 39.02679628 -78.796875 36.44921875 C-66.32057683 34.44534404 -54.71007925 35.56765568 -44.18359375 42.984375 C-35.44159171 50.3323469 -28.87468423 60.26530607 -27.71875 71.80859375 C-27.46918006 79.80523061 -27.46918006 79.80523061 -29.14477539 83.57666016 C-30.5093603 86.99052337 -31.16074682 89.30798221 -31 93 C-28.05099134 98.52043675 -22.77437532 102.62430665 -18.1875 106.75 C-16.9178575 107.94434805 -15.65153632 109.14223731 -14.38867188 110.34375 C-11.29605781 113.27155667 -8.16192429 116.14725997 -5 119 C-4.40832031 118.79503906 -3.81664062 118.59007812 -3.20703125 118.37890625 C-2.41683594 118.10949219 -1.62664062 117.84007812 -0.8125 117.5625 C-0.03519531 117.29566406 0.74210938 117.02882813 1.54296875 116.75390625 C4.01391143 115.99573147 6.46410236 115.48944856 9 115 C13.75283767 72.68743224 13.75283767 72.68743224 0.49938965 34.93383789 C-4.24016991 30.1972179 -9.6362138 26.26390951 -15.40209961 22.87524414 C-18.32915163 20.76240826 -19.08169469 19.44233503 -20 16 C-20.22769039 11.56762712 -19.56077604 7.95539621 -17.3125 4.125 C-11.92986632 -0.82120392 -6.96465416 -2.26561039 0 0 Z " fill="#FDFEFF" transform="translate(233,89)"/>
<path d="M0 0 C5.51226837 3.18883785 10.00831638 7.99178283 12.625 13.828125 C14.55548526 21.08447841 14.72821129 29.5275281 11.2890625 36.32421875 C6.71350558 43.15533191 0.47338526 48.64230288 -7.7109375 50.32421875 C-15.94914043 51.3923812 -22.16243235 49.5154435 -28.91015625 44.78125 C-33.55685085 41.02782016 -37.23754817 37.21777609 -38.7109375 31.32421875 C-39.73996776 21.5484313 -39.35774223 14.15078219 -33.203125 6.43359375 C-24.2398766 -3.48851379 -12.10737258 -5.47714474 0 0 Z " fill="#02C1FF" transform="translate(268.7109375,232.67578125)"/>
<path d="M0 0 C3.3792573 2.03005291 6.22397384 4.44794768 8 8 C8.40137875 12.17433895 8.26194303 14.49551713 6.3125 18.25 C2.99925672 22.19007309 0.71981807 23.71336366 -4.375 24.5625 C-9.2143014 23.81157392 -11.74360418 21.55075928 -15 18 C-16.74221711 14.51556578 -16.58675154 10.80112955 -16 7 C-12.32166759 0.35704147 -7.19983881 -1.28023235 0 0 Z " fill="#06D1FF" transform="translate(169,153)"/>
</svg>
